<svg width="500" height="500" viewBox="0 0 500 500" fill="none" xmlns="http://www.w3.org/2000/svg">
<g clip-path="url(#clip0_732_41)">
<path d="M250 500C388.071 500 500 388.071 500 250C500 111.929 388.071 0 250 0C111.929 0 0 111.929 0 250C0 388.071 111.929 500 250 500Z" fill="url(#paint0_linear_732_41)"/>
<path d="M217.564 323.223C219.772 325.609 222.893 326.954 226.142 326.954H282.97C286.65 326.929 290.127 325.178 292.335 322.234L319.239 286.193C320.838 284.061 321.65 281.447 321.548 278.782L319.746 215.762C319.645 212.792 318.401 210 316.32 207.919L282.386 174.162C280.203 171.98 277.234 170.761 274.137 170.761H220.228C216.751 170.787 213.452 172.335 211.244 175.025L183.528 208.503C181.726 210.66 180.787 213.426 180.838 216.244L182.031 280.609C182.107 283.452 183.198 286.168 185.152 288.274L217.564 323.249V323.223Z" fill="black"/>
<path d="M217.564 323.223C219.772 325.609 222.893 326.954 226.142 326.954H282.97C286.65 326.929 290.127 325.178 292.335 322.234L319.239 286.193C320.838 284.061 321.65 281.447 321.548 278.782L319.746 215.762C319.645 212.792 318.401 210 316.32 207.919L282.386 174.162C280.203 171.98 277.234 170.761 274.137 170.761H220.228C216.751 170.787 213.452 172.335 211.244 175.025L183.528 208.503C181.726 210.66 180.787 213.426 180.838 216.244L182.031 280.609C182.107 283.452 183.198 286.168 185.152 288.274L217.564 323.249V323.223Z" fill="white"/>
<path d="M274.137 173.274C276.574 173.274 278.858 174.213 280.584 175.939L314.518 209.695C316.168 211.345 317.132 213.528 317.208 215.812L319.01 278.858C319.086 280.939 318.452 282.995 317.208 284.67L290.305 320.711C288.579 323.02 285.863 324.391 282.97 324.391H226.142C223.604 324.416 221.168 323.35 219.442 321.498L187.031 286.523C185.508 284.899 184.645 282.767 184.594 280.533L183.401 216.142C183.35 213.934 184.086 211.777 185.508 210.102L213.223 176.624C214.975 174.518 217.538 173.3 220.254 173.3H274.163V173.274M274.163 170.736H220.254C216.777 170.761 213.477 172.31 211.269 175L183.553 208.477C181.751 210.635 180.812 213.401 180.863 216.218L182.056 280.584C182.132 283.426 183.223 286.142 185.178 288.249L217.589 323.223C219.797 325.609 222.893 326.954 226.168 326.954H282.995C286.675 326.929 290.152 325.178 292.361 322.234L319.264 286.193C320.863 284.061 321.675 281.447 321.574 278.782L319.772 215.762C319.67 212.792 318.426 210 316.345 207.919L282.411 174.162C280.229 171.98 277.259 170.761 274.163 170.761V170.736Z" fill="white"/>
<path d="M417.767 186.65L331.828 93.4519C329.214 90.5077 326.98 89.2386 322.513 89.2386L144.823 89.1117C142.691 89.1117 141.574 91.6498 142.995 93.2234L199.061 153.782C200 154.822 201.625 154.873 202.615 153.858L209.95 146.498C211.777 144.67 214.239 143.655 216.802 143.655L286.066 143.782C288.528 143.782 290.889 144.721 292.691 146.421L340.939 191.878C342.792 193.63 343.884 196.041 343.96 198.579L346.904 297.944C346.904 298.528 346.726 299.086 346.371 299.543L322.335 327.437C321.599 328.376 321.65 329.746 322.462 330.635L417.158 430.66C418.681 432.31 421.447 431.218 421.422 428.959L421.523 196.218C421.472 192.893 420.356 189.543 417.691 186.65H417.767Z" fill="white"/>
<path d="M145.026 91.6498L322.539 91.7767C326.32 91.7767 327.818 92.7666 329.975 95.1777L415.914 188.376C417.97 190.609 419.036 193.249 419.087 196.218L418.96 428.782L324.442 328.959L348.427 301.117C349.163 300.203 349.544 299.036 349.493 297.868L346.524 198.477C346.422 195.254 345.051 192.234 342.691 190.025L294.442 144.569C292.183 142.437 289.214 141.244 286.092 141.244L216.803 141.117C213.529 141.117 210.483 142.386 208.173 144.696L200.94 152.03L145.026 91.6498M144.848 89.1117C142.716 89.1117 141.6 91.6498 143.021 93.2234L199.087 153.782C199.569 154.315 200.229 154.594 200.914 154.594C201.549 154.594 202.183 154.366 202.64 153.883L209.975 146.523C211.777 144.696 214.239 143.68 216.803 143.68L286.067 143.807C288.529 143.807 290.889 144.746 292.691 146.447L340.94 191.904C342.793 193.655 343.884 196.066 343.96 198.604L346.904 297.97C346.904 298.553 346.727 299.112 346.371 299.569L322.336 327.462C321.6 328.401 321.65 329.772 322.463 330.66L417.158 430.685C417.666 431.244 418.3 431.472 418.935 431.472C420.204 431.472 421.422 430.482 421.422 428.985L421.524 196.244C421.473 192.919 420.356 189.569 417.691 186.675L331.752 93.4772C329.138 90.533 326.904 89.264 322.437 89.264L144.747 89.1371L144.848 89.1117Z" fill="white"/>
<path d="M300.914 346.244C299.975 345.203 298.351 345.152 297.361 346.167L290.026 353.528C288.198 355.355 285.736 356.37 283.173 356.37L213.909 356.244C211.447 356.244 209.087 355.304 207.285 353.604L159.036 308.147C157.183 306.396 156.092 303.985 156.016 301.447L153.071 202.081C153.071 201.497 153.249 200.939 153.604 200.482L177.64 172.589C178.376 171.65 178.325 170.279 177.513 169.391L82.8176 69.3654C81.2948 67.7156 78.5283 68.807 78.5537 71.0659L78.4268 308.579C78.4268 309.188 78.6552 309.771 79.0613 310.203L171.625 410C172.082 410.508 172.741 410.787 173.427 410.787L355.178 410.914C357.31 410.914 358.427 408.376 357.005 406.802L300.939 346.244H300.914Z" fill="white"/>
<path d="M80.9902 71.142L175.559 171.015L151.574 198.858C150.838 199.797 150.457 200.939 150.508 202.106L153.478 301.497C153.579 304.721 154.95 307.741 157.31 309.949L205.559 355.406C207.818 357.538 210.787 358.731 213.909 358.731L283.198 358.858C286.472 358.858 289.518 357.589 291.828 355.279L299.061 347.944L354.975 408.325L173.452 408.198L80.9394 308.477L81.0156 71.0913M81.0156 68.4771C79.7465 68.4771 78.5283 69.4669 78.5283 70.9643L78.4014 308.477C78.4014 309.086 78.6298 309.67 79.0359 310.101L171.599 409.898C172.056 410.406 172.716 410.685 173.401 410.685L355.153 410.812C357.285 410.812 358.401 408.274 356.98 406.7L300.914 346.142C300.432 345.609 299.772 345.33 299.087 345.33C298.452 345.33 297.818 345.558 297.361 346.04L290.026 353.401C288.224 355.228 285.762 356.243 283.198 356.243L213.934 356.117C211.472 356.117 209.112 355.178 207.31 353.477L159.061 308.02C157.208 306.269 156.117 303.858 156.041 301.32L153.097 201.954C153.097 201.37 153.274 200.812 153.63 200.355L177.665 172.462C178.401 171.523 178.351 170.152 177.538 169.264L82.843 69.2385C82.3354 68.6801 81.7009 68.4517 81.0663 68.4517L81.0156 68.4771Z" fill="white"/>
</g>
<defs>
<linearGradient id="paint0_linear_732_41" x1="77.2335" y1="69.2893" x2="427.716" y2="435.888" gradientUnits="userSpaceOnUse">
<stop stop-color="#EEB9FF"/>
<stop offset="0.53" stop-color="#83CAEE"/>
<stop offset="1" stop-color="#63DFD0"/>
</linearGradient>
<clipPath id="clip0_732_41">
<rect width="500" height="500" fill="white"/>
</clipPath>
</defs>
</svg>
